<svg width="188" height="186" viewBox="0 0 188 186" fill="none" xmlns="http://www.w3.org/2000/svg">
<path d="M93.9999 0C42.2999 0 0 41.9247 0 93.5603C0 140.247 34.404 178.997 79.3359 186V120.639H55.4599V93.5603H79.3359V72.9247C79.3359 49.488 93.3419 36.6024 114.868 36.6024C125.114 36.6024 135.83 38.3765 135.83 38.3765V61.4398H123.986C112.33 61.4398 108.664 68.6295 108.664 76.006V93.5603H134.796L130.566 120.639H108.664V186C130.814 182.525 150.985 171.298 165.533 154.347C180.082 137.395 188.05 115.836 188 93.5603C188 41.9247 145.7 0 93.9999 0Z" fill="#5B5B5B"/>
</svg>
