<svg xmlns="http://www.w3.org/2000/svg" xmlns:xlink="http://www.w3.org/1999/xlink" width="500" zoomAndPan="magnify" viewBox="0 0 375 374.999991" height="500" preserveAspectRatio="xMidYMid meet" version="1.0"><defs><clipPath id="f6b2895c02"><path d="M 25.5 25 L 349.5 25 L 349.5 350 L 25.5 350 Z M 25.5 25 " clip-rule="nonzero"/></clipPath></defs><g clip-path="url(#f6b2895c02)"><path fill="#5b5b5b" d="M 187.5 25.5 C 98.03125 25.5 25.5 98.03125 25.5 187.5 C 25.5 276.96875 98.03125 349.5 187.5 349.5 C 276.96875 349.5 349.5 276.96875 349.5 187.5 C 349.5 98.03125 276.96875 25.5 187.5 25.5 Z M 52.5 187.5 C 52.5 112.941406 112.941406 52.5 187.5 52.5 C 262.058594 52.5 322.5 112.941406 322.5 187.5 C 322.5 248.253906 282.367188 299.636719 227.164062 316.578125 C 228.671875 289.292969 228.15625 272.390625 225.613281 265.875 C 222.929688 258.996094 220.742188 256.175781 219.429688 254.488281 C 218.570312 253.378906 218.085938 252.757812 218.085938 251.792969 C 218.085938 250.171875 219.226562 249 221.507812 248.273438 C 241.398438 243.875 254.738281 231.648438 261.523438 211.597656 C 270.925781 183.816406 257.503906 163.613281 252.074219 155.4375 C 251.625 154.765625 251.230469 154.171875 250.910156 153.664062 C 246.6875 146.996094 252.21875 130.777344 258.824219 117.792969 C 236.363281 113.292969 227.785156 123.726562 222.863281 129.710938 C 220.855469 132.15625 219.453125 133.859375 217.96875 133.496094 C 216.640625 133.175781 215.214844 132.546875 213.5 131.792969 C 208.597656 129.636719 201.363281 126.457031 187.5 126.457031 C 170.308594 126.457031 158.917969 132.460938 157.175781 133.378906 C 157.023438 133.460938 156.945312 133.496094 156.945312 133.496094 C 147.90625 120.902344 135.074219 115.667969 118.445312 117.792969 C 123.023438 136.097656 123.371094 148.050781 119.476562 153.664062 C 113.640625 162.078125 102.699219 181.652344 111.191406 211.597656 C 119.6875 241.546875 150.613281 248.273438 156.5 248.273438 L 156.539062 248.28125 C 157.007812 248.382812 161.339844 249.316406 160.039062 252.976562 C 159.78125 253.949219 159.613281 255.273438 159.421875 256.769531 C 158.808594 261.5625 157.972656 268.078125 153.375 270.195312 C 147.34375 272.976562 134.042969 274.492188 128.476562 271.023438 C 126.625 269.867188 125.292969 267.453125 123.6875 264.542969 C 120.476562 258.714844 116.175781 250.910156 104.414062 247.277344 C 86.777344 241.832031 87.878906 249.03125 92.28125 250.800781 C 93.253906 251.1875 94.539062 251.554688 96.003906 251.96875 C 101.195312 253.4375 108.667969 255.554688 112.5 261.71875 C 113.621094 263.523438 114.777344 265.503906 115.957031 267.523438 C 119.941406 274.351562 124.210938 281.667969 128.476562 284.472656 C 132.164062 286.894531 141 287.867188 154.984375 287.382812 C 154.378906 300.585938 154.050781 310.894531 154.011719 318.3125 C 95.652344 303.417969 52.5 250.5 52.5 187.5 Z M 52.5 187.5 " fill-opacity="0.85" fill-rule="evenodd"/></g></svg>