<svg width="188" height="189" viewBox="0 0 188 189" fill="none" xmlns="http://www.w3.org/2000/svg">
<path d="M54.52 0H133.48C163.56 0 188 24.4865 188 54.6237V133.734C188 148.221 182.256 162.115 172.031 172.359C161.807 182.603 147.94 188.358 133.48 188.358H54.52C24.44 188.358 0 163.871 0 133.734V54.6237C0 40.1366 5.74406 26.2428 15.9685 15.9989C26.193 5.75498 40.0604 0 54.52 0M52.64 18.8358C43.6651 18.8358 35.0577 22.4078 28.7115 28.7661C22.3653 35.1244 18.8 43.7481 18.8 52.7401V135.617C18.8 154.359 33.934 169.522 52.64 169.522H135.36C144.335 169.522 152.942 165.95 159.288 159.591C165.635 153.233 169.2 144.609 169.2 135.617V52.7401C169.2 33.9985 154.066 18.8358 135.36 18.8358H52.64ZM143.35 32.9626C146.466 32.9626 149.455 34.2029 151.659 36.4106C153.862 38.6184 155.1 41.6127 155.1 44.7349C155.1 47.8571 153.862 50.8515 151.659 53.0592C149.455 55.267 146.466 56.5073 143.35 56.5073C140.234 56.5073 137.245 55.267 135.041 53.0592C132.838 50.8515 131.6 47.8571 131.6 44.7349C131.6 41.6127 132.838 38.6184 135.041 36.4106C137.245 34.2029 140.234 32.9626 143.35 32.9626ZM94 47.0894C106.465 47.0894 118.42 52.0506 127.234 60.8816C136.048 69.7125 141 81.6899 141 94.1788C141 106.668 136.048 118.645 127.234 127.476C118.42 136.307 106.465 141.268 94 141.268C81.5348 141.268 69.5802 136.307 60.766 127.476C51.9518 118.645 47 106.668 47 94.1788C47 81.6899 51.9518 69.7125 60.766 60.8816C69.5802 52.0506 81.5348 47.0894 94 47.0894M94 65.9251C86.5209 65.9251 79.3481 68.9019 74.0596 74.2004C68.7711 79.499 65.8 86.6855 65.8 94.1788C65.8 101.672 68.7711 108.859 74.0596 114.157C79.3481 119.456 86.5209 122.432 94 122.432C101.479 122.432 108.652 119.456 113.94 114.157C119.229 108.859 122.2 101.672 122.2 94.1788C122.2 86.6855 119.229 79.499 113.94 74.2004C108.652 68.9019 101.479 65.9251 94 65.9251Z" fill="#5B5B5B"/>
</svg>
