<svg xmlns="http://www.w3.org/2000/svg" xmlns:xlink="http://www.w3.org/1999/xlink" width="500" zoomAndPan="magnify" viewBox="0 0 375 374.999991" height="500" preserveAspectRatio="xMidYMid meet" version="1.0"><defs><clipPath id="7f521eeef4"><path d="M 46.257812 46.257812 L 329 46.257812 L 329 329 L 46.257812 329 Z M 46.257812 46.257812 " clip-rule="nonzero"/></clipPath></defs><g clip-path="url(#7f521eeef4)"><path fill="#5b5b5b" d="M 260.179688 328.738281 L 115.566406 328.738281 C 77.355469 328.738281 46.632812 298.019531 46.632812 259.804688 L 46.632812 115.191406 C 46.632812 76.980469 77.355469 46.257812 115.566406 46.257812 L 259.429688 46.257812 C 297.644531 46.257812 328.363281 76.980469 328.363281 115.191406 L 328.363281 259.054688 C 328.363281 297.269531 297.644531 327.992188 259.429688 327.992188 Z M 115.566406 68.738281 C 90.09375 68.738281 69.113281 89.71875 69.113281 115.191406 L 69.113281 259.054688 C 69.113281 284.53125 90.09375 305.511719 115.566406 305.511719 L 259.429688 305.511719 C 284.90625 305.511719 305.886719 284.53125 305.886719 259.054688 L 305.886719 115.191406 C 305.886719 89.71875 284.90625 68.738281 259.429688 68.738281 Z M 115.566406 68.738281 " fill-opacity="1" fill-rule="nonzero"/></g><path fill="#5b5b5b" d="M 188.25 278.539062 C 138.796875 278.539062 99.082031 238.824219 99.082031 189.371094 C 99.082031 139.917969 138.796875 100.207031 188.25 100.207031 C 237.703125 100.207031 277.414062 139.917969 277.414062 189.371094 C 277.414062 238.824219 237.703125 278.539062 188.25 278.539062 Z M 188.25 121.9375 C 150.785156 121.9375 120.8125 151.910156 120.8125 189.371094 C 120.8125 226.835938 150.785156 256.808594 188.25 256.808594 C 225.710938 256.808594 255.683594 226.835938 255.683594 189.371094 C 255.683594 151.910156 225.710938 121.9375 188.25 121.9375 Z M 188.25 121.9375 " fill-opacity="1" fill-rule="nonzero"/><path fill="#5b5b5b" d="M 188.25 229.832031 C 165.769531 229.832031 147.789062 211.851562 147.789062 189.371094 C 147.789062 166.894531 165.769531 148.910156 188.25 148.910156 C 210.726562 148.910156 228.710938 166.894531 228.710938 189.371094 C 228.710938 211.851562 210.726562 229.832031 188.25 229.832031 Z M 188.25 171.390625 C 178.507812 171.390625 170.265625 179.632812 170.265625 189.371094 C 170.265625 199.113281 178.507812 207.355469 188.25 207.355469 C 197.988281 207.355469 206.230469 199.113281 206.230469 189.371094 C 206.230469 179.632812 197.988281 171.390625 188.25 171.390625 Z M 188.25 171.390625 " fill-opacity="1" fill-rule="nonzero"/><path fill="#5b5b5b" d="M 284.90625 105.453125 C 284.90625 106.4375 284.808594 107.410156 284.617188 108.375 C 284.425781 109.339844 284.140625 110.277344 283.765625 111.1875 C 283.390625 112.097656 282.925781 112.960938 282.378906 113.777344 C 281.835938 114.597656 281.214844 115.351562 280.515625 116.050781 C 279.820312 116.746094 279.0625 117.367188 278.246094 117.914062 C 277.429688 118.460938 276.566406 118.921875 275.65625 119.296875 C 274.746094 119.675781 273.808594 119.957031 272.84375 120.148438 C 271.878906 120.34375 270.90625 120.4375 269.921875 120.4375 C 268.9375 120.4375 267.960938 120.34375 266.996094 120.148438 C 266.03125 119.957031 265.09375 119.675781 264.1875 119.296875 C 263.277344 118.921875 262.414062 118.460938 261.59375 117.914062 C 260.777344 117.367188 260.019531 116.746094 259.324219 116.050781 C 258.628906 115.351562 258.007812 114.597656 257.460938 113.777344 C 256.914062 112.960938 256.453125 112.097656 256.074219 111.1875 C 255.699219 110.277344 255.414062 109.339844 255.222656 108.375 C 255.03125 107.410156 254.933594 106.4375 254.933594 105.453125 C 254.933594 104.46875 255.03125 103.492188 255.222656 102.527344 C 255.414062 101.5625 255.699219 100.625 256.074219 99.71875 C 256.453125 98.808594 256.914062 97.945312 257.460938 97.128906 C 258.007812 96.308594 258.628906 95.550781 259.324219 94.855469 C 260.019531 94.160156 260.777344 93.539062 261.59375 92.992188 C 262.414062 92.445312 263.277344 91.984375 264.1875 91.609375 C 265.09375 91.230469 266.03125 90.945312 266.996094 90.753906 C 267.960938 90.5625 268.9375 90.46875 269.921875 90.46875 C 270.90625 90.46875 271.878906 90.5625 272.84375 90.753906 C 273.808594 90.945312 274.746094 91.230469 275.65625 91.609375 C 276.566406 91.984375 277.429688 92.445312 278.246094 92.992188 C 279.0625 93.539062 279.820312 94.160156 280.515625 94.855469 C 281.214844 95.550781 281.835938 96.308594 282.378906 97.128906 C 282.925781 97.945312 283.390625 98.808594 283.765625 99.71875 C 284.140625 100.625 284.425781 101.5625 284.617188 102.527344 C 284.808594 103.492188 284.90625 104.46875 284.90625 105.453125 Z M 284.90625 105.453125 " fill-opacity="1" fill-rule="nonzero"/></svg>