<svg width="188" height="189" viewBox="0 0 188 189" fill="none" xmlns="http://www.w3.org/2000/svg">
<path d="M167.111 0.0131836C172.651 0.0131836 177.964 2.21816 181.882 6.14303C185.799 10.0679 188 15.3912 188 20.9418V167.442C188 172.993 185.799 178.316 181.882 182.241C177.964 186.166 172.651 188.371 167.111 188.371H20.8889C15.3488 188.371 10.0356 186.166 6.11821 182.241C2.20079 178.316 0 172.993 0 167.442V20.9418C0 15.3912 2.20079 10.0679 6.11821 6.14303C10.0356 2.21816 15.3488 0.0131836 20.8889 0.0131836H167.111ZM161.889 162.21V106.749C161.889 97.7016 158.302 89.0247 151.916 82.6271C145.531 76.2296 136.87 72.6355 127.84 72.6355C118.962 72.6355 108.622 78.0769 103.609 86.2391V74.6237H74.4689V162.21H103.609V110.621C103.609 102.563 110.084 95.9709 118.127 95.9709C122.005 95.9709 125.724 97.5144 128.466 100.262C131.208 103.009 132.749 106.735 132.749 110.621V162.21H161.889ZM40.5244 58.1948C45.1781 58.1948 49.6412 56.3426 52.9318 53.0457C56.2225 49.7488 58.0711 45.2772 58.0711 40.6147C58.0711 30.8829 50.2378 22.93 40.5244 22.93C35.8431 22.93 31.3534 24.7932 28.0432 28.1097C24.733 31.4263 22.8733 35.9244 22.8733 40.6147C22.8733 50.3465 30.8111 58.1948 40.5244 58.1948ZM55.0422 162.21V74.6237H26.1111V162.21H55.0422Z" fill="#5B5B5B"/>
</svg>
