<svg xmlns="http://www.w3.org/2000/svg" xmlns:xlink="http://www.w3.org/1999/xlink" width="500" zoomAndPan="magnify" viewBox="0 0 375 374.999991" height="500" preserveAspectRatio="xMidYMid meet" version="1.0"><defs><clipPath id="888a1e9c60"><path d="M 46.257812 46.257812 L 329 46.257812 L 329 329 L 46.257812 329 Z M 46.257812 46.257812 " clip-rule="nonzero"/></clipPath></defs><path fill="#5b5b5b" d="M 116.878906 136.140625 C 127.515625 136.140625 136.140625 127.515625 136.140625 116.878906 C 136.140625 106.242188 127.515625 97.621094 116.878906 97.621094 C 106.242188 97.621094 97.621094 106.242188 97.621094 116.878906 C 97.621094 127.515625 106.242188 136.140625 116.878906 136.140625 Z M 116.878906 136.140625 " fill-opacity="1" fill-rule="nonzero"/><path fill="#5b5b5b" d="M 97.621094 161.820312 C 97.621094 154.730469 103.371094 148.980469 110.460938 148.980469 L 123.304688 148.980469 C 130.394531 148.980469 136.144531 154.730469 136.144531 161.820312 L 136.144531 264.542969 C 136.144531 271.632812 130.394531 277.382812 123.304688 277.382812 L 110.460938 277.382812 C 103.371094 277.382812 97.621094 271.632812 97.621094 264.542969 Z M 97.621094 161.820312 " fill-opacity="1" fill-rule="nonzero"/><path fill="#5b5b5b" d="M 174.65625 277.378906 L 187.5 277.378906 C 194.589844 277.378906 200.339844 271.628906 200.339844 264.539062 L 200.339844 206.757812 C 200.339844 187.5 238.859375 174.65625 238.859375 200.339844 L 238.859375 264.546875 C 238.859375 271.640625 244.609375 277.382812 251.703125 277.382812 L 264.542969 277.382812 C 271.632812 277.382812 277.382812 271.632812 277.382812 264.542969 L 277.382812 187.5 C 277.382812 161.820312 258.125 148.980469 232.441406 148.980469 C 206.757812 148.980469 200.339844 168.238281 200.339844 168.238281 L 200.339844 161.820312 C 200.339844 154.730469 194.59375 148.980469 187.5 148.980469 L 174.65625 148.980469 C 167.566406 148.980469 161.816406 154.730469 161.816406 161.820312 L 161.816406 264.542969 C 161.820312 271.632812 167.566406 277.378906 174.65625 277.378906 Z M 174.65625 277.378906 " fill-opacity="1" fill-rule="nonzero"/><g clip-path="url(#888a1e9c60)"><path fill="#5b5b5b" d="M 290.21875 46.257812 C 311.496094 46.257812 328.738281 63.507812 328.738281 84.777344 L 328.738281 290.21875 C 328.738281 311.496094 311.496094 328.738281 290.21875 328.738281 L 84.777344 328.738281 C 63.507812 328.738281 46.257812 311.496094 46.257812 290.21875 L 46.257812 84.777344 C 46.257812 63.507812 63.507812 46.257812 84.777344 46.257812 Z M 290.21875 71.9375 C 297.3125 71.9375 303.0625 77.6875 303.0625 84.777344 L 303.0625 290.21875 C 303.0625 297.3125 297.316406 303.0625 290.21875 303.0625 L 84.777344 303.0625 C 77.6875 303.0625 71.9375 297.316406 71.9375 290.21875 L 71.9375 84.777344 C 71.9375 77.6875 77.6875 71.9375 84.777344 71.9375 Z M 290.21875 71.9375 " fill-opacity="1" fill-rule="evenodd"/></g></svg>