<svg xmlns="http://www.w3.org/2000/svg" xmlns:xlink="http://www.w3.org/1999/xlink" width="1920" zoomAndPan="magnify" viewBox="0 0 1440 809.999993" height="1080" preserveAspectRatio="xMidYMid meet" version="1.0"><defs><clipPath id="9e2d462385"><path d="M 213.75 0 L 1226.25 0 L 1226.25 810 L 213.75 810 Z M 213.75 0 " clip-rule="nonzero"/></clipPath></defs><path fill="#ffffff" d="M 717.996094 529.308594 L 667.40625 529.308594 L 599.75 419.597656 L 650.644531 351.941406 C 644.957031 349.300781 640.996094 346.558594 638.757812 343.710938 L 641.808594 319.027344 L 711.289062 319.027344 L 714.339844 343.710938 C 711.492188 346.964844 706.210938 350.214844 698.492188 353.464844 L 645.769531 418.378906 L 693.917969 490.90625 C 707.125 493.753906 716.167969 498.121094 721.042969 504.011719 Z M 611.636719 319.027344 L 614.683594 344.320312 C 611.433594 348.183594 605.847656 351.636719 597.921875 354.683594 L 597.921875 493.957031 C 606.050781 497.207031 611.636719 500.558594 614.683594 504.011719 L 611.636719 529.308594 L 540.324219 529.308594 L 537.277344 504.011719 C 539.917969 500.558594 545.503906 497.207031 554.039062 493.957031 L 554.039062 354.683594 C 545.707031 351.636719 540.121094 348.183594 537.277344 344.320312 L 540.324219 319.027344 Z M 802.703125 456.167969 L 788.988281 456.167969 L 788.988281 492.128906 C 803.820312 495.378906 813.0625 499.339844 816.71875 504.011719 L 813.671875 529.308594 L 731.390625 529.308594 L 728.34375 504.011719 C 730.984375 500.558594 736.570312 497.207031 745.105469 493.957031 L 745.105469 354.683594 C 736.773438 351.636719 731.1875 348.183594 728.34375 344.320312 L 731.390625 319.027344 L 812.148438 319.027344 C 840.390625 319.433594 861.417969 324.613281 875.234375 334.570312 C 889.25 344.320312 896.261719 361.792969 896.261719 386.988281 C 896.261719 433.105469 865.074219 456.167969 802.703125 456.167969 Z M 807.273438 352.246094 L 788.988281 352.246094 L 788.988281 422.949219 L 809.40625 422.949219 C 823.222656 422.949219 833.480469 420.207031 840.1875 414.71875 C 847.09375 409.234375 850.546875 399.785156 850.546875 386.378906 C 850.546875 372.765625 846.789062 363.722656 839.273438 359.253906 C 831.957031 354.582031 821.292969 352.246094 807.273438 352.246094 Z M 807.273438 352.246094 " fill-opacity="1" fill-rule="nonzero"/><g clip-path="url(#9e2d462385)"><path stroke-linecap="butt" transform="matrix(8.019801, 0, 0, 8.019801, 214.752475, 0.00002)" fill="none" stroke-linejoin="miter" d="M 107.69894 51.938337 C 110.518134 65.159519 105.645916 76.072936 96.741686 83.900729 C 87.704484 91.846394 74.564157 96.499915 61.596741 96.499915 C 48.733073 96.499915 35.379406 91.40413 26.181957 83.166219 C 17.065848 75.000883 12.361185 64.13325 15.451193 52.12099 C 18.954728 38.500893 24.349578 26.775034 31.908992 18.52105 C 39.352483 10.394679 48.995607 5.500056 61.596741 5.500056 C 74.347408 5.500056 84.18244 10.000635 91.647361 17.825506 C 99.221388 25.765326 104.59919 37.395719 107.69894 51.938337 Z M 107.69894 51.938337 " stroke="#ffffff" stroke-width="9" stroke-opacity="1" stroke-miterlimit="4"/></g><path fill="#ffffff" d="M 447.328125 116.289062 C 447.328125 180.511719 395.261719 232.574219 331.039062 232.574219 C 266.816406 232.574219 214.753906 180.511719 214.753906 116.289062 C 214.753906 52.0625 266.816406 0 331.039062 0 C 395.261719 0 447.328125 52.0625 447.328125 116.289062 Z M 447.328125 116.289062 " fill-opacity="1" fill-rule="nonzero"/><path fill="#ffffff" d="M 1225.246094 116.289062 C 1225.246094 180.511719 1171.386719 232.574219 1104.949219 232.574219 C 1038.515625 232.574219 984.652344 180.511719 984.652344 116.289062 C 984.652344 52.0625 1038.515625 0 1104.949219 0 C 1171.386719 0 1225.246094 52.0625 1225.246094 116.289062 Z M 1225.246094 116.289062 " fill-opacity="1" fill-rule="nonzero"/></svg>